<?xml version="1.0" standalone="no"?><!DOCTYPE svg PUBLIC "-//W3C//DTD SVG 1.1//EN" "http://www.w3.org/Graphics/SVG/1.1/DTD/svg11.dtd"><svg t="1507362399852" class="icon" style="" viewBox="0 0 1024 1024" version="1.1" xmlns="http://www.w3.org/2000/svg" p-id="2045" xmlns:xlink="http://www.w3.org/1999/xlink" width="200" height="200"><defs><style type="text/css"></style></defs><path d="M816.810667 454.894933c0 68.113067-55.210667 123.3408-123.3408 123.3408-68.164267 0-123.3408-55.210667-123.3408-123.3408 0-68.113067 55.159467-123.3408 123.3408-123.3408C761.6 331.5712 816.810667 386.798933 816.810667 454.894933z" p-id="2046"></path><path d="M622.301867 284.228267c-18.551467-44.629333-62.498133-75.997867-113.8176-75.997867-68.164267 0-123.3408 55.227733-123.3408 123.3408s55.159467 123.3408 123.3408 123.3408C508.484267 378.112 555.588267 312.183467 622.301867 284.228267z" p-id="2047"></path><path d="M437.2992 160.904533c-18.551467-44.629333-62.498133-75.997867-113.8176-75.997867-68.164267 0-123.3408 55.227733-123.3408 123.3408s55.159467 123.3408 123.3408 123.3408C323.4816 254.788267 370.5856 188.842667 437.2992 160.904533z" p-id="2048"></path><path d="M940.151467 824.900267c0 68.113067-55.278933 123.3408-123.3408 123.3408L570.146133 948.241067c-68.164267 0-123.3408-55.210667-123.3408-123.3408l0-61.661867c0-68.096 55.159467-123.3408 123.3408-123.3408L816.810667 639.8976c68.0448 0 123.3408 55.227733 123.3408 123.3408L940.151467 824.900267z" p-id="2049"></path><path d="M385.143467 516.573867c-68.164267 0-123.3408 55.227733-123.3408 123.3408l0 61.661867c0 68.113067 55.159467 123.3408 123.3408 123.3408l0-61.661867c0-97.7408 76.373333-177.169067 172.475733-183.739733-16.571733-18.0736-29.405867-39.389867-37.768533-62.941867L385.143467 516.573867z" p-id="2050"></path><path d="M200.157867 393.233067c-68.164267 0-123.3408 55.227733-123.3408 123.3408l0 61.661867c0 68.113067 55.159467 123.3408 123.3408 123.3408l0-61.661867c0-97.7408 76.373333-177.169067 172.475733-183.739733-16.571733-18.0736-29.405867-39.389867-37.768533-62.941867L200.157867 393.233067z" p-id="2051"></path></svg>